M48
; DRILL file {KiCad 8.0.7} date 2024-12-14T19:25:25+0100
; FORMAT={-:-/ absolute / metric / decimal}
; #@! TF.CreationDate,2024-12-14T19:25:25+01:00
; #@! TF.GenerationSoftware,Kicad,Pcbnew,8.0.7
; #@! TF.FileFunction,Plated,1,4,PTH
FMAT,2
METRIC
; #@! TA.AperFunction,Plated,PTH,ViaDrill
T1C0.300
; #@! TA.AperFunction,Plated,PTH,ViaDrill
T2C0.500
; #@! TA.AperFunction,Plated,PTH,ViaDrill
T3C0.600
; #@! TA.AperFunction,Plated,PTH,ComponentDrill
T4C0.800
; #@! TA.AperFunction,Plated,PTH,ComponentDrill
T5C0.813
; #@! TA.AperFunction,Plated,PTH,ComponentDrill
T6C0.914
; #@! TA.AperFunction,Plated,PTH,ComponentDrill
T7C1.016
; #@! TA.AperFunction,Plated,PTH,ComponentDrill
T8C1.499
; #@! TA.AperFunction,Plated,PTH,ComponentDrill
T9C2.311
%
G90
G05
T1
X82.625Y-97.142
X82.942Y-110.001
X83.736Y-95.872
X83.736Y-108.89
X84.847Y-109.842
X85.8Y-90.157
X85.8Y-109.049
X86.741Y-111.633
X89.789Y-113.03
X90.562Y-90.475
X90.562Y-96.984
X91.186Y-81.902
X92.241Y-90.951
X92.456Y-81.788
X92.944Y-88.57
X93.98Y-86.36
X94.214Y-58.566
X94.769Y-100.0
X95.007Y-115.557
X99.929Y-94.999
X100.405Y-83.331
X100.564Y-115.557
X100.722Y-132.226
X100.881Y-88.252
X101.219Y-96.52
X101.895Y-103.327
X102.23Y-77.695
X102.235Y-89.522
X102.235Y-115.316
X102.627Y-103.759
X102.758Y-92.539
X102.875Y-102.216
X103.104Y-91.269
X103.124Y-114.935
X103.699Y-103.037
X103.739Y-88.252
X103.897Y-85.077
X104.128Y-112.141
X104.14Y-113.157
X104.374Y-134.766
X104.384Y-102.533
X104.394Y-117.475
X104.775Y-101.092
X105.167Y-142.704
X105.326Y-81.902
X105.684Y-102.579
X106.426Y-100.203
X106.426Y-108.712
X106.596Y-86.665
X106.756Y-114.335
X107.227Y-112.392
X107.422Y-113.807
X107.594Y-109.657
X107.711Y-108.134
X108.66Y-79.045
X111.921Y-113.411
X112.311Y-85.871
X112.682Y-116.769
X112.903Y-123.825
X113.03Y-109.982
X113.105Y-88.887
X113.411Y-114.046
X113.411Y-116.332
X113.819Y-90.951
X114.053Y-123.063
X114.137Y-141.83
X114.375Y-134.766
X115.486Y-99.365
X116.597Y-93.332
X116.835Y-79.045
X117.074Y-94.523
X117.39Y-110.825
X117.39Y-116.332
X117.39Y-117.094
X117.391Y-99.365
X117.55Y-122.936
X117.947Y-133.496
X118.11Y-121.285
X118.153Y-116.063
X118.185Y-91.11
X118.455Y-89.952
X118.661Y-93.888
X118.745Y-114.046
X118.839Y-120.848
X118.979Y-85.633
X119.296Y-136.036
X119.443Y-115.711
X120.566Y-138.576
X120.777Y-129.286
X121.28Y-100.952
X121.412Y-126.492
X121.519Y-71.584
X121.726Y-108.712
X121.995Y-104.604
X122.318Y-109.353
X122.33Y-115.378
X122.331Y-107.332
X122.44Y-113.251
X122.486Y-118.306
X122.55Y-141.116
X122.651Y-126.715
X122.658Y-119.138
X122.659Y-120.461
X122.867Y-111.157
X122.868Y-79.918
X122.897Y-112.551
X122.905Y-109.857
X123.052Y-106.881
X123.098Y-105.856
X123.106Y-88.411
X123.21Y-117.784
X123.232Y-115.219
X123.288Y-113.919
X123.344Y-85.856
X123.365Y-111.846
X123.496Y-119.622
X123.825Y-71.374
X124.138Y-128.337
X124.333Y-89.662
X124.932Y-143.1
X125.329Y-87.379
X125.408Y-79.045
X125.487Y-83.49
X125.694Y-102.174
X125.805Y-98.174
X126.599Y-100.238
X127.392Y-113.276
X127.433Y-108.824
X127.745Y-110.246
X128.016Y-104.14
X128.074Y-109.462
X128.098Y-117.266
X128.228Y-115.602
X128.37Y-111.44
X128.583Y-79.759
X128.633Y-112.248
X128.635Y-108.824
X128.651Y-113.748
X128.73Y-110.67
X128.778Y-106.807
X128.946Y-115.148
X129.117Y-88.221
X129.133Y-116.362
X129.218Y-91.904
X129.369Y-117.619
X129.456Y-129.21
X129.556Y-120.468
X129.615Y-124.606
X129.615Y-136.592
X129.645Y-121.831
X129.794Y-109.093
X129.921Y-94.869
X130.026Y-118.731
X130.175Y-81.28
X130.175Y-116.586
X130.465Y-117.886
X130.556Y-120.523
X130.64Y-123.177
X130.81Y-108.443
X130.906Y-85.364
X130.917Y-122.287
X130.964Y-135.084
X131.023Y-77.725
X131.18Y-79.892
X131.572Y-83.549
X131.714Y-89.932
X131.837Y-125.559
X131.837Y-132.385
X132.155Y-106.036
X132.207Y-86.487
X132.314Y-75.711
X132.614Y-109.471
X132.842Y-114.046
X132.869Y-67.297
X132.949Y-142.704
X133.266Y-74.679
X133.266Y-79.68
X133.31Y-106.587
X133.525Y-118.912
X133.731Y-90.424
X133.901Y-77.378
X133.985Y-96.139
X134.219Y-124.7
X134.377Y-71.584
X134.493Y-120.142
X134.551Y-115.795
X134.747Y-88.646
X134.78Y-106.745
X134.806Y-121.459
X135.012Y-65.551
X135.012Y-128.178
X135.012Y-130.004
X135.104Y-105.531
X135.523Y-118.722
X135.965Y-131.432
X136.124Y-80.156
X136.446Y-106.586
X136.482Y-121.441
X136.648Y-103.744
X136.838Y-125.082
X137.414Y-120.599
X137.949Y-123.177
X138.371Y-107.912
X138.571Y-120.837
X138.764Y-92.957
X138.81Y-118.026
X138.838Y-98.697
X138.902Y-133.179
X139.192Y-94.564
X139.813Y-107.428
X139.928Y-119.704
X140.395Y-112.903
X140.727Y-132.385
X141.015Y-115.384
X141.169Y-119.368
X141.304Y-111.06
X141.563Y-125.4
X143.347Y-135.242
X143.357Y-83.18
X143.674Y-117.615
X143.942Y-79.119
X143.95Y-112.056
X144.072Y-77.621
X144.186Y-114.233
X145.099Y-79.121
X145.138Y-87.63
X145.163Y-113.249
X145.413Y-120.332
X145.542Y-72.136
X146.076Y-114.251
X146.245Y-79.274
X146.304Y-115.951
X146.442Y-136.909
X146.871Y-114.554
X146.966Y-117.539
X147.058Y-80.097
X148.076Y-79.731
X148.082Y-75.692
X148.132Y-116.351
X150.126Y-116.825
X150.527Y-108.617
X150.63Y-118.831
X151.681Y-142.069
X152.014Y-108.834
X152.237Y-130.877
X152.316Y-71.628
X152.654Y-148.419
X152.713Y-127.86
X152.781Y-145.669
X153.586Y-128.734
X153.924Y-81.788
X153.924Y-83.947
X155.102Y-115.634
X155.321Y-144.018
X155.768Y-118.911
X156.364Y-113.399
X156.464Y-108.585
X156.92Y-143.021
X158.242Y-117.475
X158.511Y-115.172
X158.623Y-145.669
X158.666Y-128.734
X158.75Y-111.633
X159.783Y-114.139
X160.936Y-114.228
X161.735Y-116.552
X161.883Y-114.892
X162.159Y-143.656
X162.607Y-112.907
X162.952Y-118.745
X163.53Y-86.687
X163.797Y-112.71
X164.592Y-95.44
X164.719Y-90.932
X165.048Y-112.832
X165.137Y-104.28
X165.405Y-68.504
X166.225Y-102.31
X166.3Y-112.929
X166.497Y-88.094
X166.762Y-104.394
X167.08Y-130.004
X167.192Y-101.508
X167.549Y-113.069
X167.681Y-120.641
X167.731Y-89.296
X168.157Y-100.703
X168.35Y-86.039
X168.35Y-132.385
X168.747Y-112.753
X168.826Y-134.925
X169.037Y-119.761
X169.144Y-130.639
X169.164Y-57.912
X169.291Y-118.745
X169.311Y-86.514
X169.461Y-126.432
X170.292Y-86.121
X170.307Y-107.95
X170.566Y-99.636
X170.584Y-110.09
X170.679Y-117.559
X170.815Y-97.917
X170.896Y-112.062
X170.938Y-92.401
X170.96Y-88.026
X171.582Y-91.356
X171.763Y-136.512
X171.831Y-84.709
X171.932Y-81.929
X171.937Y-83.283
X172.656Y-112.265
X172.661Y-92.074
X172.847Y-89.662
X172.931Y-97.722
X173.482Y-100.965
X173.985Y-122.463
X174.534Y-104.611
X174.541Y-117.939
X175.652Y-74.441
X178.51Y-107.144
X178.669Y-105.874
X179.832Y-94.615
X180.097Y-72.377
X180.097Y-91.186
X180.415Y-119.05
X180.757Y-114.825
X180.795Y-110.823
X180.848Y-69.85
X180.891Y-58.884
X181.367Y-75.949
X181.526Y-73.647
X181.61Y-120.269
X182.372Y-85.344
X182.463Y-109.729
X182.463Y-112.575
X182.64Y-107.85
X182.684Y-87.3
X182.753Y-84.582
X182.792Y-86.081
X182.867Y-94.273
X183.003Y-96.173
X183.191Y-87.982
X183.38Y-92.269
X183.515Y-91.186
X183.524Y-97.392
X183.55Y-93.623
X183.551Y-111.947
X183.828Y-108.175
X183.896Y-80.518
X184.005Y-96.091
X184.086Y-92.652
X184.78Y-103.492
X184.86Y-140.799
X185.812Y-141.751
X186.289Y-68.328
X186.318Y-90.551
X187.325Y-70.231
X187.638Y-102.699
X187.876Y-142.545
X188.352Y-143.656
X188.535Y-75.394
X189.348Y-97.678
X189.464Y-104.286
X189.781Y-72.06
X189.855Y-102.859
X190.023Y-94.519
X190.257Y-144.291
X191.126Y-88.915
X191.126Y-90.237
X192.48Y-148.498
X193.115Y-77.299
X193.432Y-139.211
X193.435Y-106.994
X194.067Y-148.498
X194.357Y-105.772
X194.861Y-113.97
X195.072Y-109.728
X195.58Y-81.915
X195.834Y-79.6
X196.766Y-90.792
X196.925Y-144.291
X197.084Y-112.065
X198.036Y-92.38
X198.036Y-110.319
X198.036Y-114.446
X198.195Y-70.314
X199.941Y-81.982
X201.422Y-83.312
X202.084Y-138.576
X202.692Y-83.82
X203.275Y-97.619
X203.91Y-68.25
X203.91Y-94.285
X203.962Y-100.965
X205.105Y-90.043
X206.121Y-105.918
X206.502Y-108.839
X209.466Y-103.251
X209.863Y-120.32
X210.058Y-79.502
X210.312Y-83.693
X210.708Y-78.867
X210.947Y-69.977
X210.947Y-82.55
X211.054Y-66.504
X211.328Y-70.993
X212.165Y-84.601
X213.868Y-80.772
X213.868Y-84.582
X213.868Y-94.742
X214.208Y-66.324
X214.376Y-102.362
X215.392Y-103.124
X215.646Y-65.913
X216.281Y-68.834
X217.043Y-67.437
X218.948Y-104.521
X220.481Y-65.786
X222.758Y-88.646
X222.885Y-104.521
T2
X84.45Y-94.285
X133.858Y-94.361
X133.985Y-98.298
X134.112Y-92.075
X135.727Y-76.187
X136.779Y-83.566
X142.308Y-112.596
X142.95Y-89.364
X143.109Y-101.905
X145.013Y-97.0
X146.812Y-96.393
X148.189Y-105.239
X148.824Y-86.982
X150.876Y-113.919
X151.046Y-87.141
X151.125Y-88.411
X151.205Y-101.219
X151.257Y-79.052
X152.146Y-103.436
X152.634Y-90.17
X153.289Y-79.004
X153.793Y-88.388
X156.591Y-90.805
X157.353Y-97.44
X157.353Y-112.903
X157.555Y-103.492
X157.872Y-86.982
X159.142Y-65.913
X159.244Y-96.393
X160.571Y-96.19
X160.73Y-89.522
X160.73Y-98.889
X161.603Y-86.03
X165.354Y-108.839
X165.81Y-106.985
X170.18Y-95.885
X170.279Y-89.978
X170.434Y-102.743
X171.604Y-79.68
X183.234Y-89.486
X187.638Y-133.258
X190.257Y-133.337
X194.226Y-135.004
X195.575Y-134.449
X196.449Y-129.369
X199.227Y-140.64
X199.465Y-130.4
X201.93Y-127.94
X211.133Y-139.052
X219.837Y-93.726
T3
X81.831Y-111.589
X83.419Y-57.296
X88.34Y-143.974
X89.054Y-79.759
X90.88Y-75.711
X91.039Y-131.75
X91.832Y-92.697
X93.579Y-62.376
X93.737Y-130.956
X94.134Y-68.25
X94.214Y-65.075
X94.214Y-109.763
X95.468Y-95.813
X95.642Y-81.267
X97.547Y-94.285
X98.738Y-79.759
X99.532Y-110.636
X101.278Y-76.584
X103.262Y-65.789
X105.326Y-145.085
X106.596Y-82.696
X106.675Y-67.535
X106.914Y-97.936
X107.072Y-72.854
X107.707Y-69.996
X108.104Y-83.887
X109.136Y-81.585
X109.771Y-63.964
X110.089Y-93.967
X110.485Y-83.49
X112.245Y-127.454
X112.787Y-72.774
X113.184Y-82.775
X113.264Y-61.106
X113.581Y-94.602
X114.851Y-93.65
X116.915Y-128.892
X118.899Y-132.385
X120.09Y-68.012
X126.202Y-149.768
X127.313Y-65.948
X127.551Y-73.489
X127.551Y-134.925
X127.71Y-141.592
X128.166Y-95.327
X128.542Y-81.795
X131.445Y-101.981
X134.457Y-137.624
X134.457Y-142.704
X135.647Y-67.615
X135.647Y-73.25
X137.949Y-140.64
X139.378Y-63.011
X140.537Y-76.275
X141.045Y-86.03
X141.68Y-74.282
X142.791Y-64.916
X143.343Y-97.88
X143.505Y-60.55
X145.165Y-93.412
X145.331Y-101.746
X145.649Y-66.424
X145.649Y-68.329
X150.252Y-147.307
X150.293Y-103.613
X151.125Y-57.455
X152.316Y-69.859
X152.316Y-73.727
X154.142Y-73.647
X154.539Y-64.757
X154.539Y-105.08
X155.491Y-100.965
X158.413Y-88.475
X158.527Y-102.222
X159.442Y-91.694
X159.46Y-147.307
X160.655Y-63.373
X160.721Y-66.575
X160.91Y-70.73
X165.969Y-85.077
X166.286Y-66.583
X167.239Y-135.084
X167.794Y-60.471
X168.509Y-65.154
X170.414Y-74.507
X170.582Y-115.872
X170.89Y-129.369
X171.525Y-69.859
X171.853Y-74.4
X172.636Y-68.889
X173.43Y-130.48
X173.906Y-134.29
X174.065Y-111.43
X175.494Y-59.201
X175.97Y-65.948
X176.129Y-70.472
X178.351Y-65.551
X178.51Y-59.042
X178.986Y-73.33
X179.145Y-71.107
X179.145Y-132.385
X179.462Y-128.416
X179.939Y-75.87
X180.574Y-136.989
X181.367Y-121.431
X184.463Y-153.34
X184.542Y-134.449
X184.86Y-66.98
X186.13Y-79.883
X186.13Y-108.572
X186.447Y-134.845
X186.924Y-116.51
X186.924Y-148.895
X187.241Y-117.939
X187.559Y-65.869
X187.876Y-110.795
X187.876Y-112.065
X188.67Y-117.145
X188.987Y-73.489
X189.464Y-70.79
X191.686Y-61.849
X191.686Y-140.005
X192.797Y-115.875
X192.956Y-70.79
X193.115Y-118.415
X193.432Y-133.02
X194.067Y-115.795
X194.544Y-66.345
X194.702Y-101.905
X196.766Y-133.575
X196.766Y-153.34
X196.845Y-103.095
X197.084Y-93.332
X197.084Y-147.307
X197.322Y-98.333
X197.877Y-145.402
X198.036Y-73.171
X198.036Y-84.284
X198.036Y-100.0
X198.195Y-65.392
X198.195Y-68.885
X198.195Y-76.187
X198.989Y-134.131
X199.624Y-64.599
X200.259Y-120.32
X200.417Y-145.402
X200.894Y-76.822
X201.211Y-132.702
X201.529Y-148.974
X202.819Y-90.297
X202.957Y-121.272
X203.708Y-103.124
X203.885Y-89.742
X204.624Y-62.217
X206.609Y-122.384
X207.085Y-93.332
X208.196Y-76.822
X208.196Y-96.19
X208.355Y-97.936
X208.537Y-93.025
X209.307Y-88.252
X209.914Y-121.431
X210.339Y-150.879
X210.895Y-140.957
X210.974Y-131.67
X211.419Y-73.533
X212.006Y-111.43
X212.006Y-115.795
X213.276Y-65.422
X213.752Y-96.19
X216.408Y-81.661
X224.547Y-77.457
T5
X83.895Y-146.831
X83.895Y-149.371
X104.056Y-147.149
X106.596Y-147.149
X109.136Y-147.149
X111.676Y-147.149
X114.216Y-147.149
X116.756Y-147.149
X119.296Y-147.149
X121.836Y-147.149
X124.376Y-147.149
X140.33Y-149.371
X141.6Y-151.276
X142.87Y-149.371
X145.252Y-123.019
X145.252Y-125.559
X145.252Y-128.099
X145.252Y-130.639
X145.252Y-133.179
X145.252Y-135.719
X147.792Y-120.479
X147.792Y-123.019
X147.792Y-125.559
X147.792Y-128.099
X147.792Y-130.639
X147.792Y-133.179
X147.792Y-135.719
X147.792Y-138.259
X150.332Y-120.479
X150.332Y-123.019
X150.332Y-135.719
X150.332Y-138.259
X152.872Y-120.479
X152.872Y-123.019
X152.872Y-135.719
X152.872Y-138.259
X155.412Y-120.479
X155.412Y-123.019
X155.412Y-135.719
X155.412Y-138.259
X157.952Y-120.479
X157.952Y-123.019
X157.952Y-135.719
X157.952Y-138.259
X160.492Y-120.479
X160.492Y-123.019
X160.492Y-125.559
X160.492Y-128.099
X160.492Y-130.639
X160.492Y-133.179
X160.492Y-135.719
X160.492Y-138.259
X161.047Y-145.482
X163.032Y-123.019
X163.032Y-125.559
X163.032Y-128.099
X163.032Y-130.639
X163.032Y-133.179
X163.032Y-135.719
X163.587Y-145.482
X168.27Y-148.657
X168.27Y-151.197
X171.207Y-141.434
X171.207Y-144.132
X172.636Y-151.514
X172.715Y-148.419
X173.747Y-141.434
X173.747Y-144.132
X176.764Y-144.132
X177.716Y-151.514
X177.795Y-148.419
X179.304Y-144.132
X183.59Y-70.949
X183.59Y-73.489
X183.828Y-124.209
X183.828Y-131.829
X186.368Y-124.209
X186.368Y-131.829
X188.908Y-124.209
X188.908Y-131.829
X189.146Y-58.249
X189.146Y-60.789
X190.972Y-77.14
X191.13Y-74.441
X191.448Y-124.209
X191.448Y-131.829
X196.052Y-77.14
X196.21Y-74.441
X199.624Y-107.779
X199.624Y-110.319
X199.624Y-112.065
X199.624Y-114.605
X199.703Y-117.462
X199.703Y-125.082
X201.37Y-58.01
X201.37Y-65.63
X202.243Y-107.779
X202.243Y-110.319
X202.243Y-112.144
X202.243Y-114.684
X202.449Y-71.584
X202.481Y-117.462
X202.481Y-125.082
X203.91Y-58.01
X203.91Y-65.63
X204.545Y-107.779
X204.545Y-110.319
X204.783Y-112.144
X204.783Y-114.684
X205.259Y-117.542
X205.259Y-125.162
X205.735Y-129.13
X205.735Y-136.75
X206.45Y-58.01
X206.45Y-65.63
X207.275Y-71.584
X207.879Y-111.033
X207.879Y-113.573
X207.879Y-117.621
X207.879Y-125.241
X208.355Y-129.13
X208.355Y-136.75
X208.99Y-58.01
X208.99Y-65.63
X210.26Y-111.112
X210.26Y-113.652
X211.53Y-93.015
X212.562Y-79.204
X212.562Y-99.524
X215.102Y-79.204
X215.102Y-99.524
X216.61Y-93.015
X217.404Y-143.18
X217.642Y-79.204
X217.642Y-99.524
X218.039Y-107.223
X219.944Y-143.18
X220.182Y-79.204
X220.182Y-99.524
X222.722Y-79.204
X222.722Y-99.524
X223.119Y-107.223
X223.595Y-143.18
X226.135Y-143.18
T6
X74.052Y-65.71
X74.052Y-68.25
X74.052Y-70.79
X74.052Y-73.33
X74.052Y-75.87
X74.052Y-78.41
X74.052Y-80.95
X74.052Y-83.49
X74.052Y-86.03
X74.052Y-88.57
X74.052Y-91.11
X74.052Y-93.65
X74.052Y-96.19
X74.052Y-98.73
X74.052Y-101.27
X74.052Y-103.81
X74.052Y-106.35
X74.052Y-108.89
X74.052Y-111.43
X74.052Y-113.97
X74.052Y-116.51
X74.052Y-119.05
X74.052Y-121.59
X74.052Y-124.13
X74.052Y-126.67
X74.052Y-129.21
X74.052Y-131.75
X74.052Y-134.29
X74.052Y-136.83
X74.052Y-139.37
X74.052Y-141.91
X74.052Y-144.45
X76.91Y-150.482
X79.132Y-65.71
X79.132Y-68.25
X79.132Y-70.79
X79.132Y-73.33
X79.132Y-75.87
X79.132Y-78.41
X79.132Y-80.95
X79.132Y-83.49
X79.132Y-86.03
X79.132Y-88.57
X79.132Y-91.11
X79.132Y-93.65
X79.132Y-96.19
X79.132Y-98.73
X79.132Y-101.27
X79.132Y-103.81
X79.132Y-106.35
X79.132Y-108.89
X79.132Y-111.43
X79.132Y-113.97
X79.132Y-116.51
X79.132Y-119.05
X79.132Y-121.59
X79.132Y-124.13
X79.132Y-126.67
X79.132Y-129.21
X79.132Y-131.75
X79.132Y-134.29
X79.132Y-136.83
X79.132Y-139.37
X79.132Y-141.91
X79.132Y-144.45
X79.45Y-150.482
X83.895Y-78.648
X86.435Y-78.648
X121.677Y-143.1
X129.139Y-132.702
X132.155Y-128.178
X148.982Y-151.435
X151.522Y-151.435
X154.062Y-151.435
X156.602Y-151.435
X167.874Y-140.64
X167.874Y-143.18
X167.874Y-145.72
X182.796Y-61.265
X185.336Y-61.265
X189.384Y-79.6
X189.384Y-82.14
X192.797Y-85.395
X192.797Y-87.935
X192.797Y-90.475
X192.797Y-93.015
X192.797Y-95.555
X192.797Y-98.095
X192.797Y-100.635
X192.797Y-103.175
X214.274Y-69.682
X214.274Y-72.222
X216.372Y-58.963
X218.119Y-69.682
X218.119Y-72.222
X221.115Y-85.871
X221.115Y-88.36
X221.115Y-90.367
X221.115Y-92.856
X225.976Y-104.127
X225.976Y-106.667
T7
X126.122Y-60.312
X126.122Y-62.852
X128.662Y-60.312
X128.662Y-62.852
X131.202Y-60.312
X131.202Y-62.852
X133.742Y-60.312
X133.742Y-62.852
X136.282Y-60.312
X136.282Y-62.852
X214.387Y-120.447
X214.387Y-122.733
X214.387Y-125.019
X214.387Y-127.305
X214.387Y-129.591
X216.927Y-119.304
X216.927Y-121.59
X216.927Y-123.876
X216.927Y-126.162
X216.927Y-128.448
X219.467Y-120.447
X219.467Y-122.733
X219.467Y-125.019
X219.467Y-127.305
X219.467Y-129.591
X226.427Y-67.974
X226.427Y-72.495
T8
X223.938Y-66.729
X223.938Y-73.739
T9
X223.833Y-82.798
X223.833Y-95.929
T4
X202.716Y-144.501G85X202.716Y-143.701
G05
X205.516Y-153.151G85X206.316Y-153.151
G05
X206.916Y-150.751G85X207.716Y-150.751
G05
X210.016Y-143.551G85X210.816Y-143.551
G05
X213.716Y-148.501G85X213.716Y-147.701
G05
M30
