%TF.GenerationSoftware,KiCad,Pcbnew,8.0.7*%
%TF.CreationDate,2024-12-14T19:25:05+01:00*%
%TF.ProjectId,csa_ultracpu,6373615f-756c-4747-9261-6370752e6b69,rev?*%
%TF.SameCoordinates,Original*%
%TF.FileFunction,Paste,Top*%
%TF.FilePolarity,Positive*%
%FSLAX46Y46*%
G04 Gerber Fmt 4.6, Leading zero omitted, Abs format (unit mm)*
G04 Created by KiCad (PCBNEW 8.0.7) date 2024-12-14 19:25:05*
%MOMM*%
%LPD*%
G01*
G04 APERTURE LIST*
G04 Aperture macros list*
%AMRoundRect*
0 Rectangle with rounded corners*
0 $1 Rounding radius*
0 $2 $3 $4 $5 $6 $7 $8 $9 X,Y pos of 4 corners*
0 Add a 4 corners polygon primitive as box body*
4,1,4,$2,$3,$4,$5,$6,$7,$8,$9,$2,$3,0*
0 Add four circle primitives for the rounded corners*
1,1,$1+$1,$2,$3*
1,1,$1+$1,$4,$5*
1,1,$1+$1,$6,$7*
1,1,$1+$1,$8,$9*
0 Add four rect primitives between the rounded corners*
20,1,$1+$1,$2,$3,$4,$5,0*
20,1,$1+$1,$4,$5,$6,$7,0*
20,1,$1+$1,$6,$7,$8,$9,0*
20,1,$1+$1,$8,$9,$2,$3,0*%
G04 Aperture macros list end*
%ADD10R,1.000000X1.100000*%
%ADD11R,1.500000X1.300000*%
%ADD12R,1.100000X1.000000*%
%ADD13R,1.000000X0.250000*%
%ADD14RoundRect,0.250000X-0.350000X-0.450000X0.350000X-0.450000X0.350000X0.450000X-0.350000X0.450000X0*%
%ADD15R,1.200000X1.500000*%
%ADD16R,1.300000X1.500000*%
%ADD17RoundRect,0.250000X0.350000X0.450000X-0.350000X0.450000X-0.350000X-0.450000X0.350000X-0.450000X0*%
%ADD18R,2.032000X0.660400*%
%ADD19RoundRect,0.137500X-0.625000X-0.137500X0.625000X-0.137500X0.625000X0.137500X-0.625000X0.137500X0*%
%ADD20R,1.219000X2.235000*%
%ADD21R,3.600000X2.200000*%
%ADD22R,2.200000X0.600000*%
%ADD23R,0.660400X2.032000*%
%ADD24RoundRect,0.075000X-0.675000X-0.075000X0.675000X-0.075000X0.675000X0.075000X-0.675000X0.075000X0*%
%ADD25RoundRect,0.075000X-0.075000X-0.675000X0.075000X-0.675000X0.075000X0.675000X-0.075000X0.675000X0*%
%ADD26R,1.910000X0.610000*%
%ADD27R,2.410000X3.100000*%
%ADD28R,0.270000X1.500000*%
%ADD29R,1.500000X0.270000*%
%ADD30R,1.500000X1.200000*%
%ADD31R,0.690000X0.990000*%
%ADD32R,1.400000X1.200000*%
G04 APERTURE END LIST*
D10*
%TO.C,C101*%
X150213775Y-80752050D03*
X150213775Y-79052050D03*
%TD*%
D11*
%TO.C,C68*%
X163746100Y-149765425D03*
X163746100Y-147865425D03*
%TD*%
D12*
%TO.C,C108*%
X134924350Y-97326450D03*
X136624350Y-97326450D03*
%TD*%
D10*
%TO.C,C103*%
X154230150Y-80736175D03*
X154230150Y-79036175D03*
%TD*%
%TO.C,C57*%
X178509850Y-60414800D03*
X178509850Y-62114800D03*
%TD*%
D13*
%TO.C,U$13*%
X189255500Y-67408550D03*
X189255500Y-67908550D03*
X189255500Y-68408550D03*
X189255500Y-68908550D03*
X189255500Y-69408550D03*
X193481700Y-69408550D03*
X193481700Y-68908550D03*
X193481700Y-68408550D03*
X193481700Y-67908550D03*
X193481700Y-67408550D03*
%TD*%
D14*
%TO.C,R6*%
X87720850Y-111715550D03*
X89720850Y-111715550D03*
%TD*%
D15*
%TO.C,U$6*%
X209942350Y-106011050D03*
X209942350Y-108911050D03*
%TD*%
D16*
%TO.C,C5*%
X148979850Y-68329175D03*
X147079850Y-68329175D03*
%TD*%
D17*
%TO.C,R17*%
X97753600Y-58566050D03*
X95753600Y-58566050D03*
%TD*%
D12*
%TO.C,C112*%
X162411675Y-109040850D03*
X164111675Y-109040850D03*
%TD*%
D16*
%TO.C,C65*%
X155890475Y-63328550D03*
X157790475Y-63328550D03*
%TD*%
D17*
%TO.C,R9*%
X194564000Y-79600425D03*
X192564000Y-79600425D03*
%TD*%
D12*
%TO.C,C106*%
X134892600Y-99310825D03*
X136592600Y-99310825D03*
%TD*%
D10*
%TO.C,C25*%
X188020325Y-89458350D03*
X188020325Y-91158350D03*
%TD*%
D15*
%TO.C,U$5*%
X212323600Y-106011050D03*
X212323600Y-108911050D03*
%TD*%
D16*
%TO.C,C66*%
X174459225Y-57772300D03*
X172559225Y-57772300D03*
%TD*%
D10*
%TO.C,C43*%
X196924850Y-67036050D03*
X196924850Y-65336050D03*
%TD*%
D18*
%TO.C,IC18*%
X121143950Y-84601050D03*
X121143950Y-85871050D03*
X121143950Y-87141050D03*
X121143950Y-88411050D03*
X121143950Y-89681050D03*
X121143950Y-90951050D03*
X121143950Y-92221050D03*
X127290750Y-92221050D03*
X127290750Y-90951050D03*
X127290750Y-89681050D03*
X127290750Y-88411050D03*
X127290750Y-87141050D03*
X127290750Y-85871050D03*
X127290750Y-84601050D03*
%TD*%
D12*
%TO.C,C37*%
X136656100Y-94310200D03*
X134956100Y-94310200D03*
%TD*%
%TO.C,C54*%
X115383600Y-130860800D03*
X113683600Y-130860800D03*
%TD*%
D18*
%TO.C,IC14*%
X110031450Y-84601050D03*
X110031450Y-85871050D03*
X110031450Y-87141050D03*
X110031450Y-88411050D03*
X110031450Y-89681050D03*
X110031450Y-90951050D03*
X110031450Y-92221050D03*
X116178250Y-92221050D03*
X116178250Y-90951050D03*
X116178250Y-89681050D03*
X116178250Y-88411050D03*
X116178250Y-87141050D03*
X116178250Y-85871050D03*
X116178250Y-84601050D03*
%TD*%
D14*
%TO.C,R3*%
X155693200Y-71069200D03*
X157693200Y-71069200D03*
%TD*%
D12*
%TO.C,C49*%
X162975475Y-85077300D03*
X164675475Y-85077300D03*
%TD*%
D15*
%TO.C,U$15*%
X218547950Y-93561275D03*
X218547950Y-90661275D03*
%TD*%
D17*
%TO.C,R11*%
X157284850Y-145481675D03*
X155284850Y-145481675D03*
%TD*%
D10*
%TO.C,C120*%
X110470950Y-113279900D03*
X110470950Y-114979900D03*
%TD*%
D12*
%TO.C,C7*%
X141894850Y-67297300D03*
X140194850Y-67297300D03*
%TD*%
%TO.C,C20*%
X136751350Y-92055950D03*
X135051350Y-92055950D03*
%TD*%
D19*
%TO.C,U2*%
X174211500Y-81730000D03*
X174211500Y-82530000D03*
X174211500Y-83330000D03*
X174211500Y-84130000D03*
X174211500Y-84930000D03*
X174211500Y-85730000D03*
X174211500Y-86530000D03*
X174211500Y-87330000D03*
X174211500Y-88130000D03*
X174211500Y-88930000D03*
X174211500Y-89730000D03*
X174211500Y-90530000D03*
X174211500Y-91330000D03*
X174211500Y-92130000D03*
X174211500Y-92930000D03*
X174211500Y-93730000D03*
X174211500Y-94530000D03*
X174211500Y-95330000D03*
X174211500Y-96130000D03*
X174211500Y-96930000D03*
X174211500Y-97730000D03*
X174211500Y-98530000D03*
X185386500Y-98530000D03*
X185386500Y-97730000D03*
X185386500Y-96930000D03*
X185386500Y-96130000D03*
X185386500Y-95330000D03*
X185386500Y-94530000D03*
X185386500Y-93730000D03*
X185386500Y-92930000D03*
X185386500Y-92130000D03*
X185386500Y-91330000D03*
X185386500Y-90530000D03*
X185386500Y-89730000D03*
X185386500Y-88930000D03*
X185386500Y-88130000D03*
X185386500Y-87330000D03*
X185386500Y-86530000D03*
X185386500Y-85730000D03*
X185386500Y-84930000D03*
X185386500Y-84130000D03*
X185386500Y-83330000D03*
X185386500Y-82530000D03*
X185386500Y-81730000D03*
%TD*%
D10*
%TO.C,C33*%
X180573600Y-139902300D03*
X180573600Y-138202300D03*
%TD*%
D14*
%TO.C,R5*%
X218481400Y-64719200D03*
X220481400Y-64719200D03*
%TD*%
D18*
%TO.C,IC16*%
X87755650Y-95713550D03*
X87755650Y-96983550D03*
X87755650Y-98253550D03*
X87755650Y-99523550D03*
X87755650Y-100793550D03*
X87755650Y-102063550D03*
X87755650Y-103333550D03*
X87755650Y-104603550D03*
X87755650Y-105873550D03*
X87755650Y-107143550D03*
X87755650Y-108413550D03*
X87755650Y-109683550D03*
X97814050Y-109683550D03*
X97814050Y-108413550D03*
X97814050Y-107143550D03*
X97814050Y-105873550D03*
X97814050Y-104603550D03*
X97814050Y-103333550D03*
X97814050Y-102063550D03*
X97814050Y-100793550D03*
X97814050Y-99523550D03*
X97814050Y-98253550D03*
X97814050Y-96983550D03*
X97814050Y-95713550D03*
%TD*%
D12*
%TO.C,C19*%
X95586100Y-78409800D03*
X97286100Y-78409800D03*
%TD*%
D10*
%TO.C,C42*%
X211847350Y-64019800D03*
X211847350Y-62319800D03*
%TD*%
%TO.C,C56*%
X169080100Y-138076675D03*
X169080100Y-136376675D03*
%TD*%
D12*
%TO.C,C2*%
X162419850Y-106984800D03*
X164119850Y-106984800D03*
%TD*%
%TO.C,C36*%
X167386000Y-90551000D03*
X169086000Y-90551000D03*
%TD*%
D16*
%TO.C,C69*%
X129532975Y-149053550D03*
X127632975Y-149053550D03*
%TD*%
D10*
%TO.C,C17*%
X181129225Y-126772300D03*
X181129225Y-128472300D03*
%TD*%
%TO.C,C48*%
X139076350Y-136886050D03*
X139076350Y-135186050D03*
%TD*%
D20*
%TO.C,U$3*%
X145480725Y-63808175D03*
X147791725Y-63808175D03*
X150102725Y-63808175D03*
D21*
X147791725Y-57610175D03*
%TD*%
D22*
%TO.C,SN1*%
X171147350Y-131114800D03*
X171147350Y-132384800D03*
X171147350Y-133654800D03*
X171147350Y-134924800D03*
X176347350Y-134924800D03*
X176347350Y-133654800D03*
X176347350Y-132384800D03*
X176347350Y-131114800D03*
%TD*%
D12*
%TO.C,C26*%
X114397975Y-82696050D03*
X116097975Y-82696050D03*
%TD*%
%TO.C,C32*%
X127607350Y-81902300D03*
X125907350Y-81902300D03*
%TD*%
D19*
%TO.C,U1*%
X114702500Y-105225000D03*
X114702500Y-106025000D03*
X114702500Y-106825000D03*
X114702500Y-107625000D03*
X114702500Y-108425000D03*
X114702500Y-109225000D03*
X114702500Y-110025000D03*
X114702500Y-110825000D03*
X114702500Y-111625000D03*
X114702500Y-112425000D03*
X114702500Y-113225000D03*
X114702500Y-114025000D03*
X114702500Y-114825000D03*
X114702500Y-115625000D03*
X114702500Y-116425000D03*
X114702500Y-117225000D03*
X114702500Y-118025000D03*
X114702500Y-118825000D03*
X114702500Y-119625000D03*
X114702500Y-120425000D03*
X114702500Y-121225000D03*
X114702500Y-122025000D03*
X125877500Y-122025000D03*
X125877500Y-121225000D03*
X125877500Y-120425000D03*
X125877500Y-119625000D03*
X125877500Y-118825000D03*
X125877500Y-118025000D03*
X125877500Y-117225000D03*
X125877500Y-116425000D03*
X125877500Y-115625000D03*
X125877500Y-114825000D03*
X125877500Y-114025000D03*
X125877500Y-113225000D03*
X125877500Y-112425000D03*
X125877500Y-111625000D03*
X125877500Y-110825000D03*
X125877500Y-110025000D03*
X125877500Y-109225000D03*
X125877500Y-108425000D03*
X125877500Y-107625000D03*
X125877500Y-106825000D03*
X125877500Y-106025000D03*
X125877500Y-105225000D03*
%TD*%
D15*
%TO.C,U$14*%
X218546600Y-85398950D03*
X218546600Y-88298950D03*
%TD*%
D17*
%TO.C,R24*%
X168000475Y-57804050D03*
X166000475Y-57804050D03*
%TD*%
D14*
%TO.C,R1*%
X213546100Y-90871675D03*
X215546100Y-90871675D03*
%TD*%
D10*
%TO.C,C102*%
X152229900Y-79004425D03*
X152229900Y-80704425D03*
%TD*%
%TO.C,C113*%
X148927900Y-112819550D03*
X148927900Y-111119550D03*
%TD*%
D23*
%TO.C,IC2*%
X183907350Y-146700875D03*
X185177350Y-146700875D03*
X186447350Y-146700875D03*
X187717350Y-146700875D03*
X188987350Y-146700875D03*
X190257350Y-146700875D03*
X191527350Y-146700875D03*
X192797350Y-146700875D03*
X194067350Y-146700875D03*
X195337350Y-146700875D03*
X195337350Y-136642475D03*
X194067350Y-136642475D03*
X192797350Y-136642475D03*
X191527350Y-136642475D03*
X190257350Y-136642475D03*
X188987350Y-136642475D03*
X187717350Y-136642475D03*
X186447350Y-136642475D03*
X185177350Y-136642475D03*
X183907350Y-136642475D03*
%TD*%
D10*
%TO.C,C12*%
X179779850Y-68306050D03*
X179779850Y-66606050D03*
%TD*%
%TO.C,C58*%
X198036100Y-142918550D03*
X198036100Y-141218550D03*
%TD*%
D17*
%TO.C,R10*%
X151569850Y-145402300D03*
X149569850Y-145402300D03*
%TD*%
D12*
%TO.C,C47*%
X96856100Y-111747300D03*
X98556100Y-111747300D03*
%TD*%
D24*
%TO.C,IC8*%
X200972975Y-87772300D03*
X200972975Y-88272300D03*
X200972975Y-88772300D03*
X200972975Y-89272300D03*
X200972975Y-89772300D03*
X200972975Y-90272300D03*
X200972975Y-90772300D03*
X200972975Y-91272300D03*
D25*
X202397975Y-92697300D03*
X202897975Y-92697300D03*
X203397975Y-92697300D03*
X203897975Y-92697300D03*
X204397975Y-92697300D03*
X204897975Y-92697300D03*
X205397975Y-92697300D03*
X205897975Y-92697300D03*
D24*
X207322975Y-91272300D03*
X207322975Y-90772300D03*
X207322975Y-90272300D03*
X207322975Y-89772300D03*
X207322975Y-89272300D03*
X207322975Y-88772300D03*
X207322975Y-88272300D03*
X207322975Y-87772300D03*
D25*
X205897975Y-86347300D03*
X205397975Y-86347300D03*
X204897975Y-86347300D03*
X204397975Y-86347300D03*
X203897975Y-86347300D03*
X203397975Y-86347300D03*
X202897975Y-86347300D03*
X202397975Y-86347300D03*
%TD*%
D10*
%TO.C,C21*%
X204703600Y-96133550D03*
X204703600Y-97833550D03*
%TD*%
%TO.C,C110*%
X152960150Y-111076000D03*
X152960150Y-112776000D03*
%TD*%
D12*
%TO.C,C105*%
X169213000Y-97028000D03*
X167513000Y-97028000D03*
%TD*%
%TO.C,C31*%
X106811100Y-92538550D03*
X105111100Y-92538550D03*
%TD*%
D10*
%TO.C,C29*%
X190416100Y-62954800D03*
X190416100Y-64654800D03*
%TD*%
%TO.C,C121*%
X130727450Y-115027525D03*
X130727450Y-113327525D03*
%TD*%
D12*
%TO.C,C40*%
X208093600Y-78251050D03*
X206393600Y-78251050D03*
%TD*%
D18*
%TO.C,IC5*%
X88231900Y-130956050D03*
X88231900Y-132226050D03*
X88231900Y-133496050D03*
X88231900Y-134766050D03*
X88231900Y-136036050D03*
X88231900Y-137306050D03*
X88231900Y-138576050D03*
X88231900Y-139846050D03*
X88231900Y-141116050D03*
X88231900Y-142386050D03*
X98290300Y-142386050D03*
X98290300Y-141116050D03*
X98290300Y-139846050D03*
X98290300Y-138576050D03*
X98290300Y-137306050D03*
X98290300Y-136036050D03*
X98290300Y-134766050D03*
X98290300Y-133496050D03*
X98290300Y-132226050D03*
X98290300Y-130956050D03*
%TD*%
D10*
%TO.C,C111*%
X157119400Y-111644800D03*
X157119400Y-109944800D03*
%TD*%
D12*
%TO.C,C1*%
X136592600Y-101920675D03*
X134892600Y-101920675D03*
%TD*%
%TO.C,C104*%
X167452225Y-95046800D03*
X169152225Y-95046800D03*
%TD*%
%TO.C,C41*%
X140862975Y-82537300D03*
X139162975Y-82537300D03*
%TD*%
D18*
%TO.C,IC13*%
X88073150Y-81267300D03*
X88073150Y-82537300D03*
X88073150Y-83807300D03*
X88073150Y-85077300D03*
X88073150Y-86347300D03*
X88073150Y-87617300D03*
X88073150Y-88887300D03*
X88073150Y-90157300D03*
X88073150Y-91427300D03*
X88073150Y-92697300D03*
X98131550Y-92697300D03*
X98131550Y-91427300D03*
X98131550Y-90157300D03*
X98131550Y-88887300D03*
X98131550Y-87617300D03*
X98131550Y-86347300D03*
X98131550Y-85077300D03*
X98131550Y-83807300D03*
X98131550Y-82537300D03*
X98131550Y-81267300D03*
%TD*%
D12*
%TO.C,C107*%
X169422100Y-102755700D03*
X167722100Y-102755700D03*
%TD*%
%TO.C,C35*%
X174200475Y-128971675D03*
X172500475Y-128971675D03*
%TD*%
%TO.C,C34*%
X96221100Y-62376050D03*
X97921100Y-62376050D03*
%TD*%
D14*
%TO.C,R27*%
X124963600Y-71345425D03*
X126963600Y-71345425D03*
%TD*%
D11*
%TO.C,C70*%
X104849850Y-67691675D03*
X104849850Y-65791675D03*
%TD*%
D12*
%TO.C,C13*%
X88634225Y-94126050D03*
X86934225Y-94126050D03*
%TD*%
D18*
%TO.C,IC19*%
X88231900Y-64439800D03*
X88231900Y-65709800D03*
X88231900Y-66979800D03*
X88231900Y-68249800D03*
X88231900Y-69519800D03*
X88231900Y-70789800D03*
X88231900Y-72059800D03*
X88231900Y-73329800D03*
X88231900Y-74599800D03*
X88231900Y-75869800D03*
X98290300Y-75869800D03*
X98290300Y-74599800D03*
X98290300Y-73329800D03*
X98290300Y-72059800D03*
X98290300Y-70789800D03*
X98290300Y-69519800D03*
X98290300Y-68249800D03*
X98290300Y-66979800D03*
X98290300Y-65709800D03*
X98290300Y-64439800D03*
%TD*%
%TO.C,IC3*%
X172420200Y-113334800D03*
X172420200Y-114604800D03*
X172420200Y-115874800D03*
X172420200Y-117144800D03*
X172420200Y-118414800D03*
X172420200Y-119684800D03*
X172420200Y-120954800D03*
X178567000Y-120954800D03*
X178567000Y-119684800D03*
X178567000Y-118414800D03*
X178567000Y-117144800D03*
X178567000Y-115874800D03*
X178567000Y-114604800D03*
X178567000Y-113334800D03*
%TD*%
D14*
%TO.C,R4*%
X202751100Y-81981675D03*
X204751100Y-81981675D03*
%TD*%
D12*
%TO.C,C15*%
X98317975Y-128416050D03*
X96617975Y-128416050D03*
%TD*%
D26*
%TO.C,U$16*%
X169617975Y-60232925D03*
X169617975Y-61502925D03*
X169617975Y-62772925D03*
X169617975Y-64042925D03*
X175177975Y-64042925D03*
X175177975Y-62772925D03*
X175177975Y-61502925D03*
X175177975Y-60232925D03*
D27*
X172397975Y-62137925D03*
%TD*%
D14*
%TO.C,R12*%
X218481400Y-67014600D03*
X220481400Y-67014600D03*
%TD*%
D12*
%TO.C,C11*%
X189327975Y-110239175D03*
X191027975Y-110239175D03*
%TD*%
D18*
%TO.C,IC7*%
X184802700Y-112064800D03*
X184802700Y-113334800D03*
X184802700Y-114604800D03*
X184802700Y-115874800D03*
X184802700Y-117144800D03*
X184802700Y-118414800D03*
X184802700Y-119684800D03*
X184802700Y-120954800D03*
X190949500Y-120954800D03*
X190949500Y-119684800D03*
X190949500Y-118414800D03*
X190949500Y-117144800D03*
X190949500Y-115874800D03*
X190949500Y-114604800D03*
X190949500Y-113334800D03*
X190949500Y-112064800D03*
%TD*%
D28*
%TO.C,U$2*%
X142931100Y-106939800D03*
X143431100Y-106939800D03*
X143931100Y-106939800D03*
X144431100Y-106939800D03*
X144931100Y-106939800D03*
X145431100Y-106939800D03*
X145931100Y-106939800D03*
X146431100Y-106939800D03*
X146931100Y-106939800D03*
X147431100Y-106939800D03*
X147931100Y-106939800D03*
X148431100Y-106939800D03*
X148931100Y-106939800D03*
X149431100Y-106939800D03*
X149931100Y-106939800D03*
X150431100Y-106939800D03*
X150931100Y-106939800D03*
X151431100Y-106939800D03*
X151931100Y-106939800D03*
X152431100Y-106939800D03*
X152931100Y-106939800D03*
X153431100Y-106939800D03*
X153931100Y-106939800D03*
X154431100Y-106939800D03*
X154931100Y-106939800D03*
X155431100Y-106939800D03*
X155931100Y-106939800D03*
X156431100Y-106939800D03*
X156931100Y-106939800D03*
X157431100Y-106939800D03*
X157931100Y-106939800D03*
X158431100Y-106939800D03*
X158931100Y-106939800D03*
X159431100Y-106939800D03*
X159931100Y-106939800D03*
X160431100Y-106939800D03*
D29*
X162431100Y-104939800D03*
X162431100Y-104439800D03*
X162431100Y-103939800D03*
X162431100Y-103439800D03*
X162431100Y-102939800D03*
X162431100Y-102439800D03*
X162431100Y-101939800D03*
X162431100Y-101439800D03*
X162431100Y-100939800D03*
X162431100Y-100439800D03*
X162431100Y-99939800D03*
X162431100Y-99439800D03*
X162431100Y-98939800D03*
X162431100Y-98439800D03*
X162431100Y-97939800D03*
X162431100Y-97439800D03*
X162431100Y-96939800D03*
X162431100Y-96439800D03*
X162431100Y-95939800D03*
X162431100Y-95439800D03*
X162431100Y-94939800D03*
X162431100Y-94439800D03*
X162431100Y-93939800D03*
X162431100Y-93439800D03*
X162431100Y-92939800D03*
X162431100Y-92439800D03*
X162431100Y-91939800D03*
X162431100Y-91439800D03*
X162431100Y-90939800D03*
X162431100Y-90439800D03*
X162431100Y-89939800D03*
X162431100Y-89439800D03*
X162431100Y-88939800D03*
X162431100Y-88439800D03*
X162431100Y-87939800D03*
X162431100Y-87439800D03*
D28*
X160431100Y-85439800D03*
X159931100Y-85439800D03*
X159431100Y-85439800D03*
X158931100Y-85439800D03*
X158431100Y-85439800D03*
X157931100Y-85439800D03*
X157431100Y-85439800D03*
X156931100Y-85439800D03*
X156431100Y-85439800D03*
X155931100Y-85439800D03*
X155431100Y-85439800D03*
X154931100Y-85439800D03*
X154431100Y-85439800D03*
X153931100Y-85439800D03*
X153431100Y-85439800D03*
X152931100Y-85439800D03*
X152431100Y-85439800D03*
X151931100Y-85439800D03*
X151431100Y-85439800D03*
X150931100Y-85439800D03*
X150431100Y-85439800D03*
X149931100Y-85439800D03*
X149431100Y-85439800D03*
X148931100Y-85439800D03*
X148431100Y-85439800D03*
X147931100Y-85439800D03*
X147431100Y-85439800D03*
X146931100Y-85439800D03*
X146431100Y-85439800D03*
X145931100Y-85439800D03*
X145431100Y-85439800D03*
X144931100Y-85439800D03*
X144431100Y-85439800D03*
X143931100Y-85439800D03*
X143431100Y-85439800D03*
X142931100Y-85439800D03*
D29*
X140931100Y-87439800D03*
X140931100Y-87939800D03*
X140931100Y-88439800D03*
X140931100Y-88939800D03*
X140931100Y-89439800D03*
X140931100Y-89939800D03*
X140931100Y-90439800D03*
X140931100Y-90939800D03*
X140931100Y-91439800D03*
X140931100Y-91939800D03*
X140931100Y-92439800D03*
X140931100Y-92939800D03*
X140931100Y-93439800D03*
X140931100Y-93939800D03*
X140931100Y-94439800D03*
X140931100Y-94939800D03*
X140931100Y-95439800D03*
X140931100Y-95939800D03*
X140931100Y-96439800D03*
X140931100Y-96939800D03*
X140931100Y-97439800D03*
X140931100Y-97939800D03*
X140931100Y-98439800D03*
X140931100Y-98939800D03*
X140931100Y-99439800D03*
X140931100Y-99939800D03*
X140931100Y-100439800D03*
X140931100Y-100939800D03*
X140931100Y-101439800D03*
X140931100Y-101939800D03*
X140931100Y-102439800D03*
X140931100Y-102939800D03*
X140931100Y-103439800D03*
X140931100Y-103939800D03*
X140931100Y-104439800D03*
X140931100Y-104939800D03*
%TD*%
D12*
%TO.C,C4*%
X140942350Y-84601050D03*
X139242350Y-84601050D03*
%TD*%
D30*
%TO.C,U$10*%
X212662350Y-126542800D03*
X209762350Y-126542800D03*
%TD*%
D16*
%TO.C,C67*%
X199070475Y-103651050D03*
X200970475Y-103651050D03*
%TD*%
D12*
%TO.C,C45*%
X152894850Y-75711050D03*
X154594850Y-75711050D03*
%TD*%
D31*
%TO.C,IC6*%
X132554225Y-141453550D03*
X133504225Y-141453550D03*
X134454225Y-141453550D03*
X134454225Y-138863550D03*
X132554225Y-138863550D03*
%TD*%
D30*
%TO.C,U$8*%
X212821100Y-118891050D03*
X209921100Y-118891050D03*
%TD*%
D14*
%TO.C,R25*%
X192591100Y-82219800D03*
X194591100Y-82219800D03*
%TD*%
D32*
%TO.C,X3*%
X149501000Y-72129000D03*
X147101000Y-72129000D03*
X147101000Y-74029000D03*
X149501000Y-74029000D03*
%TD*%
D12*
%TO.C,C123*%
X164191025Y-70297675D03*
X165891025Y-70297675D03*
%TD*%
%TO.C,C55*%
X184200350Y-78663800D03*
X185900350Y-78663800D03*
%TD*%
D18*
%TO.C,IC4*%
X88549400Y-114287300D03*
X88549400Y-115557300D03*
X88549400Y-116827300D03*
X88549400Y-118097300D03*
X88549400Y-119367300D03*
X88549400Y-120637300D03*
X88549400Y-121907300D03*
X88549400Y-123177300D03*
X88549400Y-124447300D03*
X88549400Y-125717300D03*
X98607800Y-125717300D03*
X98607800Y-124447300D03*
X98607800Y-123177300D03*
X98607800Y-121907300D03*
X98607800Y-120637300D03*
X98607800Y-119367300D03*
X98607800Y-118097300D03*
X98607800Y-116827300D03*
X98607800Y-115557300D03*
X98607800Y-114287300D03*
%TD*%
D16*
%TO.C,C64*%
X164775475Y-64360425D03*
X162875475Y-64360425D03*
%TD*%
D14*
%TO.C,R2*%
X213546100Y-88331675D03*
X215546100Y-88331675D03*
%TD*%
D10*
%TO.C,C28*%
X150983950Y-111152650D03*
X150983950Y-112852650D03*
%TD*%
D16*
%TO.C,C71*%
X128585475Y-67535425D03*
X130485475Y-67535425D03*
%TD*%
D10*
%TO.C,C46*%
X107707350Y-61638550D03*
X107707350Y-59938550D03*
%TD*%
D14*
%TO.C,R26*%
X219896100Y-104365425D03*
X221896100Y-104365425D03*
%TD*%
D10*
%TO.C,C44*%
X168984850Y-76402300D03*
X168984850Y-74702300D03*
%TD*%
D12*
%TO.C,C8*%
X152736100Y-67535425D03*
X154436100Y-67535425D03*
%TD*%
D10*
%TO.C,C27*%
X198036100Y-86926050D03*
X198036100Y-88626050D03*
%TD*%
D12*
%TO.C,C16*%
X198852975Y-98332925D03*
X200552975Y-98332925D03*
%TD*%
%TO.C,C24*%
X176866100Y-111350425D03*
X178566100Y-111350425D03*
%TD*%
D10*
%TO.C,C14*%
X137076100Y-135186050D03*
X137076100Y-136886050D03*
%TD*%
D17*
%TO.C,R16*%
X91117850Y-128257300D03*
X89117850Y-128257300D03*
%TD*%
D15*
%TO.C,U$11*%
X207640475Y-105931675D03*
X207640475Y-108831675D03*
%TD*%
D12*
%TO.C,C18*%
X113683600Y-128892300D03*
X115383600Y-128892300D03*
%TD*%
%TO.C,C39*%
X200837350Y-78251050D03*
X202537350Y-78251050D03*
%TD*%
D10*
%TO.C,C30*%
X187558600Y-62954800D03*
X187558600Y-64654800D03*
%TD*%
%TO.C,C109*%
X142308025Y-109960675D03*
X142308025Y-111660675D03*
%TD*%
%TO.C,C9*%
X206735600Y-96054175D03*
X206735600Y-97754175D03*
%TD*%
%TO.C,C22*%
X167000475Y-138076675D03*
X167000475Y-136376675D03*
%TD*%
M02*
