%TF.GenerationSoftware,KiCad,Pcbnew,8.0.7*%
%TF.CreationDate,2024-12-14T19:25:05+01:00*%
%TF.ProjectId,csa_ultracpu,6373615f-756c-4747-9261-6370752e6b69,rev?*%
%TF.SameCoordinates,Original*%
%TF.FileFunction,Soldermask,Bot*%
%TF.FilePolarity,Negative*%
%FSLAX46Y46*%
G04 Gerber Fmt 4.6, Leading zero omitted, Abs format (unit mm)*
G04 Created by KiCad (PCBNEW 8.0.7) date 2024-12-14 19:25:05*
%MOMM*%
%LPD*%
G01*
G04 APERTURE LIST*
G04 Aperture macros list*
%AMFreePoly0*
4,1,25,0.375350,0.844196,0.387473,0.833842,0.833842,0.387473,0.862349,0.331525,0.863600,0.315631,0.863600,-0.315631,0.844196,-0.375350,0.833842,-0.387473,0.387473,-0.833842,0.331525,-0.862349,0.315631,-0.863600,-0.315631,-0.863600,-0.375350,-0.844196,-0.387473,-0.833842,-0.833842,-0.387473,-0.862349,-0.331525,-0.863600,-0.315631,-0.863600,0.315631,-0.844196,0.375350,-0.833842,0.387473,
-0.387473,0.833842,-0.331525,0.862349,-0.315631,0.863600,0.315631,0.863600,0.375350,0.844196,0.375350,0.844196,$1*%
%AMFreePoly1*
4,1,25,0.333266,0.742596,0.345389,0.732242,0.732242,0.345389,0.760749,0.289441,0.762000,0.273547,0.762000,-0.273547,0.742596,-0.333266,0.732242,-0.345389,0.345389,-0.732242,0.289441,-0.760749,0.273547,-0.762000,-0.273547,-0.762000,-0.333266,-0.742596,-0.345389,-0.732242,-0.732242,-0.345389,-0.760749,-0.289441,-0.762000,-0.273547,-0.762000,0.273547,-0.742596,0.333266,-0.732242,0.345389,
-0.345389,0.732242,-0.289441,0.760749,-0.273547,0.762000,0.273547,0.762000,0.333266,0.742596,0.333266,0.742596,$1*%
%AMFreePoly2*
4,1,25,0.391131,0.882296,0.403254,0.871942,0.871942,0.403254,0.900449,0.347306,0.901700,0.331412,0.901700,-0.331412,0.882296,-0.391131,0.871942,-0.403254,0.403254,-0.871942,0.347306,-0.900449,0.331412,-0.901700,-0.331412,-0.901700,-0.391131,-0.882296,-0.403254,-0.871942,-0.871942,-0.403254,-0.900449,-0.347306,-0.901700,-0.331412,-0.901700,0.331412,-0.882296,0.391131,-0.871942,0.403254,
-0.403254,0.871942,-0.347306,0.900449,-0.331412,0.901700,0.331412,0.901700,0.391131,0.882296,0.391131,0.882296,$1*%
%AMFreePoly3*
4,1,25,0.349047,0.780696,0.361170,0.770342,0.770342,0.361170,0.798849,0.305222,0.800100,0.289328,0.800100,-0.289328,0.780696,-0.349047,0.770342,-0.361170,0.361170,-0.770342,0.305222,-0.798849,0.289328,-0.800100,-0.289328,-0.800100,-0.349047,-0.780696,-0.361170,-0.770342,-0.770342,-0.361170,-0.798849,-0.305222,-0.800100,-0.289328,-0.800100,0.289328,-0.780696,0.349047,-0.770342,0.361170,
-0.361170,0.770342,-0.305222,0.798849,-0.289328,0.800100,0.289328,0.800100,0.349047,0.780696,0.349047,0.780696,$1*%
G04 Aperture macros list end*
%ADD10C,0.152400*%
%ADD11FreePoly0,90.000000*%
%ADD12C,2.362200*%
%ADD13O,1.524000X2.844800*%
%ADD14O,1.625600X3.048000*%
%ADD15FreePoly1,180.000000*%
%ADD16FreePoly1,0.000000*%
%ADD17O,3.048000X1.625600*%
%ADD18C,1.803400*%
%ADD19FreePoly2,270.000000*%
%ADD20C,3.200000*%
%ADD21C,1.600200*%
%ADD22FreePoly3,180.000000*%
%ADD23FreePoly1,90.000000*%
%ADD24FreePoly1,270.000000*%
%ADD25C,1.524000*%
%ADD26O,1.403200X2.603200*%
%ADD27O,2.603200X1.403200*%
%ADD28C,3.048000*%
%ADD29C,1.727200*%
%ADD30C,2.082800*%
%ADD31C,2.794000*%
%ADD32FreePoly2,180.000000*%
%ADD33C,1.625600*%
%ADD34C,3.530600*%
G04 APERTURE END LIST*
D10*
%TO.C,P1*%
X68718350Y-62687200D02*
X68718350Y-55067200D01*
X68718350Y-155092400D02*
X68718350Y-147472400D01*
%TD*%
D11*
%TO.C,S1*%
X226426950Y-72494775D03*
X226426950Y-67973575D03*
D12*
X223937750Y-73739375D03*
X223937750Y-66728975D03*
%TD*%
D13*
%TO.C,U$4*%
X208989850Y-58010425D03*
X206449850Y-58010425D03*
X203909850Y-58010425D03*
X201369850Y-58010425D03*
X201369850Y-65630425D03*
X203909850Y-65630425D03*
X206449850Y-65630425D03*
X208989850Y-65630425D03*
%TD*%
D14*
%TO.C,JP3*%
X79449850Y-150482300D03*
X76909850Y-150482300D03*
%TD*%
D15*
%TO.C,R22*%
X219943600Y-143179800D03*
X217403600Y-143179800D03*
%TD*%
D14*
%TO.C,JP6*%
X86434850Y-78647925D03*
X83894850Y-78647925D03*
%TD*%
D16*
%TO.C,C10*%
X172636100Y-151514175D03*
X177716100Y-151514175D03*
%TD*%
D17*
%TO.C,JP11*%
X121677350Y-143100425D03*
%TD*%
D13*
%TO.C,D4*%
X205259225Y-125161675D03*
X205259225Y-117541675D03*
%TD*%
D15*
%TO.C,R31*%
X173747350Y-141433550D03*
X171207350Y-141433550D03*
%TD*%
D13*
%TO.C,U$9*%
X222721725Y-79203550D03*
X220181725Y-79203550D03*
X217641725Y-79203550D03*
X215101725Y-79203550D03*
X212561725Y-79203550D03*
X212561725Y-99523550D03*
X215101725Y-99523550D03*
X217641725Y-99523550D03*
X220181725Y-99523550D03*
X222721725Y-99523550D03*
%TD*%
D17*
%TO.C,JP13*%
X218119200Y-72222200D03*
X218119200Y-69682200D03*
%TD*%
D18*
%TO.C,C6*%
X83894850Y-146831050D03*
D19*
X83894850Y-149371050D03*
%TD*%
D16*
%TO.C,D8*%
X216609850Y-93014800D03*
X211529850Y-93014800D03*
%TD*%
D14*
%TO.C,JP7*%
X148982350Y-151434800D03*
X151522350Y-151434800D03*
X154062350Y-151434800D03*
X156602350Y-151434800D03*
%TD*%
D18*
%TO.C,C38*%
X183589850Y-70948550D03*
D19*
X183589850Y-73488550D03*
%TD*%
D20*
%TO.C,H4*%
X223753600Y-150323550D03*
%TD*%
D21*
%TO.C,U$1*%
X152871725Y-135718550D03*
D22*
X155411725Y-138258550D03*
X155411725Y-135718550D03*
X157951725Y-138258550D03*
X157951725Y-135718550D03*
X160491725Y-138258550D03*
X163031725Y-135718550D03*
X160491725Y-135718550D03*
X163031725Y-133178550D03*
X160491725Y-133178550D03*
X163031725Y-130638550D03*
X160491725Y-130638550D03*
X163031725Y-128098550D03*
X160491725Y-128098550D03*
X163031725Y-125558550D03*
X160491725Y-125558550D03*
X163031725Y-123018550D03*
X160491725Y-120478550D03*
X160491725Y-123018550D03*
X157951725Y-120478550D03*
X157951725Y-123018550D03*
X155411725Y-120478550D03*
X155411725Y-123018550D03*
X152871725Y-120478550D03*
X152871725Y-123018550D03*
X150331725Y-120478550D03*
X150331725Y-123018550D03*
X147791725Y-120478550D03*
X145251725Y-123018550D03*
X147791725Y-123018550D03*
X145251725Y-125558550D03*
X147791725Y-125558550D03*
X145251725Y-128098550D03*
X147791725Y-128098550D03*
X145251725Y-130638550D03*
X147791725Y-130638550D03*
X145251725Y-133178550D03*
X147791725Y-133178550D03*
X145251725Y-135718550D03*
X147791725Y-138258550D03*
X147791725Y-135718550D03*
X150331725Y-138258550D03*
X150331725Y-135718550D03*
X152871725Y-138258550D03*
%TD*%
D13*
%TO.C,U$18*%
X183827975Y-131829175D03*
X186367975Y-131829175D03*
X188907975Y-131829175D03*
X191447975Y-131829175D03*
X191447975Y-124209175D03*
X188907975Y-124209175D03*
X186367975Y-124209175D03*
X183827975Y-124209175D03*
%TD*%
D23*
%TO.C,R7*%
X210259850Y-113652300D03*
X210259850Y-111112300D03*
%TD*%
D13*
%TO.C,RN2*%
X124376100Y-147148550D03*
X121836100Y-147148550D03*
X119296100Y-147148550D03*
X116756100Y-147148550D03*
X114216100Y-147148550D03*
X111676100Y-147148550D03*
X109136100Y-147148550D03*
X106596100Y-147148550D03*
X104056100Y-147148550D03*
%TD*%
D24*
%TO.C,R32*%
X168270475Y-148656675D03*
X168270475Y-151196675D03*
%TD*%
%TO.C,R18*%
X204544850Y-107778550D03*
X204544850Y-110318550D03*
%TD*%
%TO.C,R20*%
X199623600Y-107778550D03*
X199623600Y-110318550D03*
%TD*%
D16*
%TO.C,LED1*%
X223594850Y-143179800D03*
X226134850Y-143179800D03*
%TD*%
D15*
%TO.C,R29*%
X163587350Y-145481675D03*
X161047350Y-145481675D03*
%TD*%
D14*
%TO.C,JP2*%
X185336100Y-61264800D03*
X182796100Y-61264800D03*
%TD*%
D23*
%TO.C,R15*%
X199623600Y-114604800D03*
X199623600Y-112064800D03*
%TD*%
D17*
%TO.C,JP1*%
X225976100Y-104127300D03*
X225976100Y-106667300D03*
%TD*%
D24*
%TO.C,R19*%
X202242975Y-107778550D03*
X202242975Y-110318550D03*
%TD*%
D13*
%TO.C,D7*%
X207878600Y-125241050D03*
X207878600Y-117621050D03*
%TD*%
%TO.C,D3*%
X202481100Y-125082300D03*
X202481100Y-117462300D03*
%TD*%
%TO.C,D10*%
X208354850Y-136750425D03*
X208354850Y-129130425D03*
%TD*%
D17*
%TO.C,U$12*%
X192797350Y-98094800D03*
X192797350Y-85394800D03*
X192797350Y-95554800D03*
X192797350Y-93014800D03*
X192797350Y-87934800D03*
X192797350Y-100634800D03*
X192797350Y-90474800D03*
X192797350Y-103174800D03*
%TD*%
%TO.C,JP8*%
X132154850Y-128177925D03*
%TD*%
D25*
%TO.C,Q2*%
X189146100Y-58248550D03*
X189146100Y-60788550D03*
%TD*%
D15*
%TO.C,D9*%
X218038600Y-107222925D03*
X223118600Y-107222925D03*
%TD*%
D26*
%TO.C,X1*%
X213716100Y-148101050D03*
D27*
X210416100Y-143551050D03*
X205916100Y-153151050D03*
D26*
X202716100Y-144101050D03*
D27*
X207316100Y-150751050D03*
%TD*%
D13*
%TO.C,D1*%
X205735475Y-136750425D03*
X205735475Y-129130425D03*
%TD*%
%TO.C,D2*%
X199702975Y-125082300D03*
X199702975Y-117462300D03*
%TD*%
D23*
%TO.C,R14*%
X202242975Y-114684175D03*
X202242975Y-112144175D03*
%TD*%
D15*
%TO.C,D5*%
X190971725Y-77139800D03*
X196051725Y-77139800D03*
%TD*%
D28*
%TO.C,X2*%
X216927350Y-137261600D03*
X216927350Y-112268000D03*
D29*
X214387350Y-120446800D03*
X214387350Y-122732800D03*
X214387350Y-125018800D03*
X214387350Y-127304800D03*
X214387350Y-129590800D03*
X216927350Y-119303800D03*
X216927350Y-121589800D03*
X216927350Y-123875800D03*
X216927350Y-126161800D03*
X216927350Y-128447800D03*
X219467350Y-120446800D03*
X219467350Y-122732800D03*
X219467350Y-125018800D03*
X219467350Y-127304800D03*
X219467350Y-129590800D03*
%TD*%
D23*
%TO.C,R13*%
X204782975Y-114684175D03*
X204782975Y-112144175D03*
%TD*%
D17*
%TO.C,JP9*%
X129138600Y-132702300D03*
%TD*%
%TO.C,JP12*%
X214274400Y-72222200D03*
X214274400Y-69682200D03*
%TD*%
D14*
%TO.C,JP10*%
X216371725Y-58962925D03*
%TD*%
D20*
%TO.C,H3*%
X223753600Y-59836050D03*
%TD*%
D30*
%TO.C,U$7*%
X136282350Y-60312300D03*
X136282350Y-62852300D03*
X133742350Y-60312300D03*
X133742350Y-62852300D03*
X131202350Y-60312300D03*
X131202350Y-62852300D03*
X128662350Y-60312300D03*
X128662350Y-62852300D03*
X126122350Y-60312300D03*
X126122350Y-62852300D03*
%TD*%
D15*
%TO.C,DS1818*%
X142870475Y-149371050D03*
X141600475Y-151276050D03*
X140330475Y-149371050D03*
%TD*%
D25*
%TO.C,Q3*%
X202449350Y-71583550D03*
X207275350Y-71583550D03*
%TD*%
D16*
%TO.C,R28*%
X176763600Y-144132300D03*
X179303600Y-144132300D03*
%TD*%
D15*
%TO.C,R30*%
X173747350Y-144132300D03*
X171207350Y-144132300D03*
%TD*%
%TO.C,D6*%
X191130475Y-74441050D03*
X196210475Y-74441050D03*
%TD*%
D17*
%TO.C,JP4*%
X189384225Y-79600425D03*
X189384225Y-82140425D03*
%TD*%
%TO.C,JP5*%
X167873600Y-140639800D03*
X167873600Y-143179800D03*
X167873600Y-145719800D03*
%TD*%
D31*
%TO.C,P1*%
X71512350Y-149529800D03*
X71512350Y-60629800D03*
D18*
X74052350Y-144449800D03*
D32*
X74052350Y-141909800D03*
X74052350Y-139369800D03*
X74052350Y-136829800D03*
X74052350Y-134289800D03*
X74052350Y-131749800D03*
X74052350Y-129209800D03*
X74052350Y-126669800D03*
X74052350Y-124129800D03*
X74052350Y-121589800D03*
X74052350Y-119049800D03*
X74052350Y-116509800D03*
X74052350Y-113969800D03*
X74052350Y-111429800D03*
X74052350Y-108889800D03*
X74052350Y-106349800D03*
X74052350Y-103809800D03*
X74052350Y-101269800D03*
X74052350Y-98729800D03*
X74052350Y-96189800D03*
X74052350Y-93649800D03*
X74052350Y-91109800D03*
X74052350Y-88569800D03*
X74052350Y-86029800D03*
X74052350Y-83489800D03*
X74052350Y-80949800D03*
X74052350Y-78409800D03*
X74052350Y-75869800D03*
X74052350Y-73329800D03*
X74052350Y-70789800D03*
X74052350Y-68249800D03*
X74052350Y-65709800D03*
X79132350Y-144449800D03*
X79132350Y-141909800D03*
X79132350Y-139369800D03*
X79132350Y-136829800D03*
X79132350Y-134289800D03*
X79132350Y-131749800D03*
X79132350Y-129209800D03*
X79132350Y-126669800D03*
X79132350Y-124129800D03*
X79132350Y-121589800D03*
X79132350Y-119049800D03*
X79132350Y-116509800D03*
X79132350Y-113969800D03*
X79132350Y-111429800D03*
X79132350Y-108889800D03*
X79132350Y-106349800D03*
X79132350Y-103809800D03*
X79132350Y-101269800D03*
X79132350Y-98729800D03*
X79132350Y-96189800D03*
X79132350Y-93649800D03*
X79132350Y-91109800D03*
X79132350Y-88569800D03*
X79132350Y-86029800D03*
X79132350Y-83489800D03*
X79132350Y-80949800D03*
X79132350Y-78409800D03*
X79132350Y-75869800D03*
X79132350Y-73329800D03*
X79132350Y-70789800D03*
X79132350Y-68249800D03*
X79132350Y-65709800D03*
%TD*%
D33*
%TO.C,USB1*%
X221115175Y-88360250D03*
X221115175Y-90366850D03*
X221115175Y-85871050D03*
D34*
X223832975Y-95929450D03*
X223832975Y-82797650D03*
D33*
X221115175Y-92856050D03*
%TD*%
D23*
%TO.C,R8*%
X207878600Y-113572925D03*
X207878600Y-111032925D03*
%TD*%
D15*
%TO.C,C3*%
X177795475Y-148418550D03*
X172715475Y-148418550D03*
%TD*%
M02*
